<mxfile host="app.diagrams.net" modified="2021-05-19T02:57:38.251Z" agent="5.0 (Macintosh; Intel Mac OS X 10_15_7) AppleWebKit/537.36 (KHTML, like Gecko) Chrome/90.0.4430.212 Safari/537.36" etag="bT7T1Yp6DGouoL_zl8gV" version="14.6.9" type="github">
  <diagram name="Page-1" id="13e1069c-82ec-6db2-03f1-153e76fe0fe0">
    <mxGraphModel dx="786" dy="514" grid="1" gridSize="10" guides="1" tooltips="1" connect="1" arrows="1" fold="1" page="1" pageScale="1" pageWidth="1100" pageHeight="850" background="#ffffff" math="0" shadow="0">
      <root>
        <mxCell id="0" />
        <mxCell id="1" parent="0" />
        <mxCell id="G0kBllWM4XBfNNBUBDi2-18" value=":Object" style="shape=umlLifeline;perimeter=lifelinePerimeter;whiteSpace=wrap;html=1;container=1;collapsible=0;recursiveResize=0;outlineConnect=0;" parent="1" vertex="1">
          <mxGeometry x="27" y="39" width="100" height="300" as="geometry" />
        </mxCell>
        <mxCell id="G0kBllWM4XBfNNBUBDi2-16" value="«actor»&lt;br&gt;&lt;b&gt;Admin&amp;nbsp;&lt;/b&gt;" style="html=1;" parent="1" vertex="1">
          <mxGeometry x="2" y="39" width="150" height="40" as="geometry" />
        </mxCell>
        <mxCell id="G0kBllWM4XBfNNBUBDi2-21" value=":Object" style="shape=umlLifeline;perimeter=lifelinePerimeter;whiteSpace=wrap;html=1;container=1;collapsible=0;recursiveResize=0;outlineConnect=0;" parent="1" vertex="1">
          <mxGeometry x="182" y="39" width="140" height="300" as="geometry" />
        </mxCell>
        <mxCell id="G0kBllWM4XBfNNBUBDi2-22" value="«boundary»&lt;br&gt;&lt;b&gt;UserManageView&amp;nbsp;&lt;/b&gt;" style="html=1;" parent="G0kBllWM4XBfNNBUBDi2-21" vertex="1">
          <mxGeometry x="-28" width="203" height="40" as="geometry" />
        </mxCell>
        <mxCell id="G0kBllWM4XBfNNBUBDi2-32" value="" style="html=1;points=[];perimeter=orthogonalPerimeter;" parent="G0kBllWM4XBfNNBUBDi2-21" vertex="1">
          <mxGeometry x="65" y="60" width="10" height="80" as="geometry" />
        </mxCell>
        <mxCell id="G0kBllWM4XBfNNBUBDi2-26" value=":Object" style="shape=umlLifeline;perimeter=lifelinePerimeter;whiteSpace=wrap;html=1;container=1;collapsible=0;recursiveResize=0;outlineConnect=0;" parent="1" vertex="1">
          <mxGeometry x="375" y="39" width="150" height="300" as="geometry" />
        </mxCell>
        <mxCell id="G0kBllWM4XBfNNBUBDi2-27" value="«boundary»&lt;br&gt;&lt;b&gt;CoreView - MessageBox&lt;/b&gt;" style="html=1;" parent="G0kBllWM4XBfNNBUBDi2-26" vertex="1">
          <mxGeometry x="-15" width="168" height="40" as="geometry" />
        </mxCell>
        <mxCell id="G0kBllWM4XBfNNBUBDi2-28" value=":Object" style="shape=umlLifeline;perimeter=lifelinePerimeter;whiteSpace=wrap;html=1;container=1;collapsible=0;recursiveResize=0;outlineConnect=0;" parent="1" vertex="1">
          <mxGeometry x="555" y="40" width="220" height="300" as="geometry" />
        </mxCell>
        <mxCell id="G0kBllWM4XBfNNBUBDi2-29" value="«control»&lt;br&gt;&lt;b&gt;UserController&lt;/b&gt;" style="html=1;" parent="G0kBllWM4XBfNNBUBDi2-28" vertex="1">
          <mxGeometry x="-15" width="235" height="40" as="geometry" />
        </mxCell>
        <mxCell id="PuFkgoadRzGWJXXDr4ic-1" value="" style="html=1;points=[];perimeter=orthogonalPerimeter;" parent="G0kBllWM4XBfNNBUBDi2-28" vertex="1">
          <mxGeometry x="105" y="90" width="10" height="100" as="geometry" />
        </mxCell>
        <mxCell id="G0kBllWM4XBfNNBUBDi2-30" value=":Object" style="shape=umlLifeline;perimeter=lifelinePerimeter;whiteSpace=wrap;html=1;container=1;collapsible=0;recursiveResize=0;outlineConnect=0;" parent="1" vertex="1">
          <mxGeometry x="785" y="40" width="130" height="300" as="geometry" />
        </mxCell>
        <mxCell id="G0kBllWM4XBfNNBUBDi2-31" value="«entity»&lt;br&gt;&lt;b&gt;Entity: Teacher&amp;nbsp;&lt;/b&gt;" style="html=1;" parent="G0kBllWM4XBfNNBUBDi2-30" vertex="1">
          <mxGeometry x="-4" width="135" height="40" as="geometry" />
        </mxCell>
        <mxCell id="R5bM8_hLhjlkB18MUOeS-15" value="" style="html=1;points=[];perimeter=orthogonalPerimeter;" parent="G0kBllWM4XBfNNBUBDi2-30" vertex="1">
          <mxGeometry x="60" y="150" width="10" height="40" as="geometry" />
        </mxCell>
        <mxCell id="R5bM8_hLhjlkB18MUOeS-17" value="" style="html=1;points=[];perimeter=orthogonalPerimeter;" parent="G0kBllWM4XBfNNBUBDi2-30" vertex="1">
          <mxGeometry x="60" y="210" width="10" height="40" as="geometry" />
        </mxCell>
        <mxCell id="G0kBllWM4XBfNNBUBDi2-23" value="1: Chọn người dùng cần xem" style="html=1;verticalAlign=bottom;startArrow=oval;startFill=1;endArrow=block;startSize=8;entryX=0.5;entryY=0.09;entryDx=0;entryDy=0;entryPerimeter=0;" parent="1" target="G0kBllWM4XBfNNBUBDi2-32" edge="1">
          <mxGeometry width="60" relative="1" as="geometry">
            <mxPoint x="76.5" y="106" as="sourcePoint" />
            <mxPoint x="245.5" y="106" as="targetPoint" />
            <Array as="points">
              <mxPoint x="140" y="106" />
            </Array>
          </mxGeometry>
        </mxCell>
        <mxCell id="DVAs7N8q5XkVekkUKqxM-1" value="2 : Kiểm tra trạng thái đăng nhập" style="html=1;verticalAlign=bottom;endArrow=open;dashed=1;endSize=8;" parent="1" target="G0kBllWM4XBfNNBUBDi2-18" edge="1">
          <mxGeometry relative="1" as="geometry">
            <mxPoint x="250" y="130" as="sourcePoint" />
            <mxPoint x="340" y="230" as="targetPoint" />
            <Array as="points">
              <mxPoint x="190" y="130" />
            </Array>
          </mxGeometry>
        </mxCell>
        <mxCell id="DVAs7N8q5XkVekkUKqxM-8" value="9 : Trả kết quả" style="html=1;verticalAlign=bottom;endArrow=open;dashed=1;endSize=8;exitX=-0.3;exitY=0.375;exitDx=0;exitDy=0;exitPerimeter=0;" parent="1" edge="1">
          <mxGeometry relative="1" as="geometry">
            <mxPoint x="843.0000000000002" y="278" as="sourcePoint" />
            <mxPoint x="665.6666666666667" y="278" as="targetPoint" />
          </mxGeometry>
        </mxCell>
        <mxCell id="DVAs7N8q5XkVekkUKqxM-9" value="10 : Thông báo kết quả" style="html=1;verticalAlign=bottom;endArrow=open;dashed=1;endSize=8;" parent="1" edge="1">
          <mxGeometry relative="1" as="geometry">
            <mxPoint x="664.5000000000002" y="308" as="sourcePoint" />
            <mxPoint x="450" y="308" as="targetPoint" />
          </mxGeometry>
        </mxCell>
        <mxCell id="PuFkgoadRzGWJXXDr4ic-2" value="3 : Gửi yêu cầu xem GV" style="html=1;verticalAlign=bottom;startArrow=oval;startFill=1;endArrow=block;startSize=8;exitX=0.9;exitY=0.243;exitDx=0;exitDy=0;exitPerimeter=0;" parent="1" edge="1">
          <mxGeometry width="60" relative="1" as="geometry">
            <mxPoint x="261" y="143.01" as="sourcePoint" />
            <mxPoint x="664.5" y="143.01" as="targetPoint" />
          </mxGeometry>
        </mxCell>
        <mxCell id="R5bM8_hLhjlkB18MUOeS-7" value=":Object" style="shape=umlLifeline;perimeter=lifelinePerimeter;whiteSpace=wrap;html=1;container=1;collapsible=0;recursiveResize=0;outlineConnect=0;" parent="1" vertex="1">
          <mxGeometry x="930" y="40" width="130" height="300" as="geometry" />
        </mxCell>
        <mxCell id="R5bM8_hLhjlkB18MUOeS-8" value="«entity»&lt;br&gt;&lt;b&gt;Entity: Level&lt;/b&gt;" style="html=1;" parent="R5bM8_hLhjlkB18MUOeS-7" vertex="1">
          <mxGeometry x="-4" width="135" height="40" as="geometry" />
        </mxCell>
        <mxCell id="R5bM8_hLhjlkB18MUOeS-10" value="" style="html=1;points=[];perimeter=orthogonalPerimeter;" parent="R5bM8_hLhjlkB18MUOeS-7" vertex="1">
          <mxGeometry x="63" y="152" width="10" height="30" as="geometry" />
        </mxCell>
        <mxCell id="G0kBllWM4XBfNNBUBDi2-37" value="" style="html=1;points=[];perimeter=orthogonalPerimeter;" parent="R5bM8_hLhjlkB18MUOeS-7" vertex="1">
          <mxGeometry x="61" y="190" width="10" height="40" as="geometry" />
        </mxCell>
        <mxCell id="G0kBllWM4XBfNNBUBDi2-41" value="7 : Kiểm tra thông tin Trình độ" style="edgeStyle=orthogonalEdgeStyle;html=1;align=left;spacingLeft=2;endArrow=block;rounded=0;exitX=0.9;exitY=0.367;exitDx=0;exitDy=0;exitPerimeter=0;entryX=1.15;entryY=0.558;entryDx=0;entryDy=0;entryPerimeter=0;" parent="R5bM8_hLhjlkB18MUOeS-7" source="R5bM8_hLhjlkB18MUOeS-10" target="G0kBllWM4XBfNNBUBDi2-37" edge="1">
          <mxGeometry relative="1" as="geometry">
            <mxPoint x="70.00000000000023" y="135" as="sourcePoint" />
            <Array as="points">
              <mxPoint x="111" y="161" />
              <mxPoint x="111" y="212" />
            </Array>
            <mxPoint x="82.5" y="212.12" as="targetPoint" />
          </mxGeometry>
        </mxCell>
        <mxCell id="PuFkgoadRzGWJXXDr4ic-4" value="" style="html=1;points=[];perimeter=orthogonalPerimeter;" parent="1" vertex="1">
          <mxGeometry x="845" y="145" width="10" height="30" as="geometry" />
        </mxCell>
        <mxCell id="R5bM8_hLhjlkB18MUOeS-12" value="4 : Tìm kiếm người dùng cần xem" style="html=1;verticalAlign=bottom;startArrow=oval;startFill=1;endArrow=block;startSize=8;exitX=1.2;exitY=0.563;exitDx=0;exitDy=0;exitPerimeter=0;" parent="1" target="PuFkgoadRzGWJXXDr4ic-4" edge="1">
          <mxGeometry width="60" relative="1" as="geometry">
            <mxPoint x="672" y="154.03999999999996" as="sourcePoint" />
            <mxPoint x="884.5" y="154.03999999999996" as="targetPoint" />
          </mxGeometry>
        </mxCell>
        <mxCell id="R5bM8_hLhjlkB18MUOeS-13" value="6 : Tìm kiếm Trình độ GV" style="html=1;verticalAlign=bottom;startArrow=oval;startFill=1;endArrow=block;startSize=8;" parent="1" edge="1">
          <mxGeometry width="60" relative="1" as="geometry">
            <mxPoint x="860" y="210" as="sourcePoint" />
            <mxPoint x="997.5" y="210" as="targetPoint" />
            <Array as="points">
              <mxPoint x="980.5" y="210" />
            </Array>
          </mxGeometry>
        </mxCell>
        <mxCell id="R5bM8_hLhjlkB18MUOeS-14" value="8 : Trả kết quả" style="html=1;verticalAlign=bottom;endArrow=open;dashed=1;endSize=8;exitX=-0.3;exitY=0.375;exitDx=0;exitDy=0;exitPerimeter=0;" parent="1" edge="1">
          <mxGeometry relative="1" as="geometry">
            <mxPoint x="982.3300000000003" y="260" as="sourcePoint" />
            <mxPoint x="855" y="260" as="targetPoint" />
          </mxGeometry>
        </mxCell>
        <mxCell id="R5bM8_hLhjlkB18MUOeS-16" value="5 : Kiểm tra thông tin GV" style="edgeStyle=orthogonalEdgeStyle;html=1;align=left;spacingLeft=2;endArrow=block;rounded=0;exitX=0.95;exitY=0.547;exitDx=0;exitDy=0;exitPerimeter=0;entryX=0.886;entryY=0.082;entryDx=0;entryDy=0;entryPerimeter=0;" parent="1" target="R5bM8_hLhjlkB18MUOeS-15" edge="1">
          <mxGeometry relative="1" as="geometry">
            <mxPoint x="855.0000000000002" y="170" as="sourcePoint" />
            <Array as="points">
              <mxPoint x="870" y="170" />
              <mxPoint x="870" y="193" />
              <mxPoint x="858" y="193" />
            </Array>
            <mxPoint x="857.5" y="247.32000000000005" as="targetPoint" />
          </mxGeometry>
        </mxCell>
      </root>
    </mxGraphModel>
  </diagram>
</mxfile>
